<svg width="23" height="24" viewBox="0 0 23 24" fill="none" xmlns="http://www.w3.org/2000/svg">
<path fill-rule="evenodd" clip-rule="evenodd" d="M15.4251 8.30199C15.5983 8.47528 15.8817 8.45427 16.0313 8.2626C16.1573 8.09719 16.1389 7.86614 15.9867 7.72173C14.5381 6.33541 13.2128 5.62124 11.0661 5.73414C8.77514 5.85492 6.7728 7.0391 6.90402 9.56493C7.02097 11.7999 9.18467 12.6229 11.0709 13.3404C12.5285 13.8948 13.8204 14.3862 13.8742 15.4174C13.9345 16.5648 12.7667 17.2553 11.7459 17.3078C9.82223 17.4076 8.68853 16.7302 7.43412 15.5119C7.28192 15.3649 7.04048 15.357 6.88302 15.4988C6.70982 15.6537 6.70195 15.9242 6.86728 16.0869C8.28702 17.4943 9.733 18.2006 11.8587 18.0903C14.008 17.9774 16.6008 16.7801 16.4696 14.2543C16.3548 12.0612 14.2843 11.2584 12.4069 10.5304C10.8499 9.92673 9.42579 9.37453 9.36035 8.12347C9.31049 7.20976 10.3917 6.56121 11.179 6.5192C13.0554 6.42205 14.2284 7.10208 15.4251 8.30199ZM15.6829 14.2963C15.6829 15.2651 15.1501 16.1027 14.3497 16.5937L14.3104 16.5779C14.5964 16.1841 14.6515 15.6616 14.6515 15.1942C14.6515 13.7658 13.0807 13.1971 11.4305 12.5998C9.60453 11.9388 7.6814 11.2426 7.6814 9.3076C7.6814 8.42802 8.08816 7.4723 8.85445 7.03645L8.87545 7.07058C8.68125 7.4933 8.58678 7.94753 8.58678 8.41489C8.58678 9.9973 10.3357 10.6498 12.097 11.307C13.8835 11.9736 15.6829 12.6449 15.6829 14.2963Z" fill="white"/>
<path fill-rule="evenodd" clip-rule="evenodd" d="M11.5 22.5226C17.299 22.5226 22 17.8216 22 12.0226C22 6.2236 17.299 1.52258 11.5 1.52258C5.70102 1.52258 1 6.2236 1 12.0226C1 17.8216 5.70102 22.5226 11.5 22.5226Z" stroke="white" stroke-width="2" stroke-linecap="round"/>
</svg>
