<svg width="382" height="249" viewBox="0 0 382 249" fill="none" xmlns="http://www.w3.org/2000/svg">
<path d="M222.641 59.0435C221.418 59.0435 220.323 58.2973 219.876 57.1632C219.418 56.0291 219.697 54.7358 220.582 53.89L223.069 51.5223C224.263 50.3881 226.153 50.4379 227.287 51.6317C228.431 52.8255 228.381 54.7157 227.188 55.8498L224.701 58.2175C224.143 58.7448 223.407 59.0433 222.641 59.0433L222.641 59.0435Z" fill="#FC2748"/>
<path d="M201.262 79.3976C200.039 79.3976 198.944 78.6515 198.497 77.5174C198.039 76.3932 198.318 75.0899 199.203 74.2544L215.628 58.6153C216.195 58.0482 216.971 57.7299 217.777 57.7398C218.583 57.7498 219.349 58.0781 219.906 58.665C220.463 59.242 220.752 60.028 220.722 60.8338C220.692 61.6396 220.344 62.3957 219.747 62.933L203.322 78.572C202.765 79.0993 202.028 79.3978 201.262 79.3978L201.262 79.3976Z" fill="#FC2748"/>
<path d="M156.543 65.6194C155.359 65.6194 154.275 64.9131 153.807 63.8187C153.339 62.7244 153.558 61.4509 154.374 60.5855L179.554 33.9533C180.678 32.7594 182.568 32.6997 183.772 33.8339C184.966 34.968 185.025 36.8582 183.891 38.0519L158.721 64.6842C158.154 65.2811 157.368 65.6194 156.543 65.6194L156.543 65.6194Z" fill="#FC2748"/>
<path d="M69.0855 216.848C67.8917 216.848 66.8172 216.141 66.3398 215.047C65.8722 213.953 66.0911 212.679 66.9168 211.814L108.145 168.189C109.279 166.985 111.169 166.936 112.363 168.07C113.567 169.194 113.617 171.084 112.482 172.288L71.2542 215.913C70.6872 216.51 69.9012 216.848 69.0854 216.848L69.0855 216.848Z" fill="#FC2748"/>
<path d="M30.5238 196.911C29.3299 196.911 28.2555 196.195 27.788 195.11C27.3104 194.016 27.5392 192.743 28.355 191.877L58.6674 159.802C59.8016 158.608 61.6918 158.549 62.8855 159.683C64.0793 160.817 64.139 162.707 63.0049 163.901L32.6925 195.976C32.1354 196.573 31.3494 196.911 30.5237 196.911L30.5238 196.911Z" fill="#FC2748"/>
<path d="M19.5999 208.472C18.4061 208.472 17.3317 207.755 16.8641 206.661C16.3866 205.567 16.6154 204.303 17.4312 203.438L20.9927 199.657C22.1368 198.493 23.9873 198.463 25.171 199.578C26.3548 200.692 26.4246 202.552 25.3302 203.756L21.7687 207.536C21.2016 208.133 20.4257 208.472 19.5999 208.472Z" fill="#FC2748"/>
<path d="M156.633 22.0431C155.081 21.8143 153.161 20.2723 153.39 18.7202C153.619 17.1682 153.39 14.6812 156.494 14.4225C158.056 14.2931 161.438 15.7954 160.722 18.8893C160.643 19.8743 160.155 20.7796 159.379 21.3765C158.593 21.9734 157.598 22.2221 156.633 22.043L156.633 22.0431Z" fill="#FC2748"/>
<path d="M41.5978 90.5806C40.0458 90.3518 38.1257 88.8098 38.3546 87.2578C38.5836 85.7058 38.3546 83.2287 41.4587 82.9699C43.0206 82.8406 46.4031 84.3428 45.687 87.4368V87.4269C45.6074 88.4118 45.1199 89.3171 44.3439 89.914C43.558 90.5109 42.5631 90.7596 41.5982 90.5806L41.5978 90.5806Z" fill="#FC2748"/>
<path d="M109.736 221.035C107.816 220.746 105.439 218.846 105.727 216.926C106.016 215.006 105.727 211.942 109.567 211.614C111.507 211.454 115.685 213.305 114.79 217.135L114.8 217.145C114.701 218.349 114.094 219.473 113.129 220.209C112.164 220.955 110.93 221.254 109.736 221.035L109.736 221.035Z" fill="#FC2748"/>
<path d="M175.205 198.816C174.024 198.636 172.562 197.449 172.739 196.249C172.917 195.05 172.739 193.135 175.101 192.93C176.295 192.831 178.865 193.987 178.314 196.38L178.32 196.386C178.259 197.138 177.886 197.84 177.292 198.3C176.698 198.766 175.94 198.953 175.205 198.816L175.205 198.816Z" fill="#FC2748"/>
<path d="M9.47278 248.523C8.2491 248.513 7.14482 247.757 6.69724 246.612C6.24966 245.468 6.55796 244.165 7.46327 243.329L114.28 145.635C115.862 144.183 118.21 143.914 120.08 144.989C121.562 145.874 122.507 147.436 122.617 149.167L128.138 209.654C128.228 210.45 127.989 211.246 127.482 211.863C126.974 212.48 126.238 212.878 125.442 212.947C124.646 213.017 123.85 212.768 123.244 212.251C122.627 211.734 122.259 210.997 122.199 210.192L116.896 152.2C116.867 151.872 116.479 151.723 116.23 151.942L11.4914 247.736C10.9443 248.243 10.218 248.521 9.47189 248.521L9.47278 248.523Z" fill="#FC2748"/>
<path d="M3.18572 243.737C2.23065 243.687 1.33529 243.24 0.72843 242.483C0.131504 241.737 -0.117195 240.762 0.0519405 239.817C0.0519405 239.718 0.0917348 239.608 0.171323 239.539C13.1044 226.924 79.1919 153.751 96.2735 134.821C96.4626 134.582 96.3332 134.224 96.0348 134.174L51.6154 126.872C49.9839 126.603 48.8896 125.061 49.1582 123.439C49.4168 121.808 50.9588 120.713 52.5806 120.972L99.5085 128.702C101.09 128.981 102.453 129.985 103.18 131.418C103.906 132.861 103.916 134.552 103.209 135.994C103.189 136.044 103.16 136.084 103.13 136.124C91.5794 148.948 21.1141 227.053 5.30594 242.862H5.29599C4.73887 243.419 3.98277 243.737 3.18688 243.737H3.18572Z" fill="#FC2748"/>
<path d="M52.262 120.873C50.6602 120.873 49.3372 119.599 49.2773 117.998C49.2873 116.396 50.511 115.063 52.1028 114.904L99.5885 108.865C99.887 108.825 100.036 108.487 99.8671 108.248L53.2779 39.3054C52.8202 38.6587 52.6411 37.8429 52.7904 37.057C52.9296 36.2711 53.3873 35.5747 54.0538 35.127C54.7104 34.6793 55.5262 34.5102 56.3122 34.6694C57.0981 34.8285 57.7845 35.2961 58.2223 35.9627L106.085 106.777H106.075C107.199 108.419 107.229 110.578 106.155 112.249C105.289 113.532 103.886 114.378 102.344 114.537L52.6402 120.855C52.5109 120.865 52.3915 120.874 52.2622 120.874L52.262 120.873Z" fill="#FC2748"/>
<path d="M120.58 94.6582C119.317 94.6582 118.113 94.1708 117.198 93.3052L60.3319 39.8116C59.138 38.6775 59.0783 36.7971 60.2025 35.5935C61.3367 34.3897 63.2269 34.3301 64.4308 35.4642L119.137 86.9382H119.127C119.376 87.167 119.783 87.0079 119.803 86.6696L123.464 31.057C123.504 30.2611 123.862 29.505 124.459 28.9777C125.056 28.4504 125.842 28.1818 126.648 28.2316C127.444 28.2813 128.18 28.6594 128.707 29.2662C129.225 29.8631 129.483 30.659 129.424 31.4549L125.574 89.813C125.504 91.4148 124.688 92.897 123.365 93.8123C122.539 94.3595 121.574 94.6579 120.579 94.6579L120.58 94.6582Z" fill="#FC2748"/>
<path d="M146.405 89.5265C143.988 89.5265 141.919 87.7855 141.511 85.4077L132.139 31.3385C131.86 29.7169 132.955 28.1649 134.576 27.8863C136.198 27.6077 137.74 28.6921 138.029 30.3236L146.972 81.9479L146.962 81.938C147.022 82.2464 147.39 82.3757 147.619 82.1768L240.479 0.736693C241.723 -0.347697 243.603 -0.218369 244.697 1.01527C245.782 2.25883 245.652 4.13921 244.419 5.23333L149.689 88.2932C148.784 89.0891 147.61 89.5268 146.406 89.5268L146.405 89.5265Z" fill="#FC2748"/>
<path d="M132.965 211.077C132.766 211.077 132.568 211.057 132.369 211.027C130.846 210.719 129.812 209.296 129.991 207.754C131.016 198.293 135.114 160.418 136.089 151.346H136.099C136.268 149.337 137.581 147.606 139.482 146.909C141.581 146.193 143.899 146.969 145.152 148.8L165.378 178.088C166.243 179.441 165.885 181.252 164.552 182.157C163.229 183.073 161.418 182.774 160.463 181.471L142.386 155.277C142.178 154.968 141.7 155.098 141.66 155.466L135.93 208.422C135.761 209.934 134.487 211.078 132.965 211.078L132.965 211.077Z" fill="#FC2748"/>
<path d="M169.138 180.525C167.835 180.525 166.681 179.669 166.293 178.416L155.25 142.442C154.623 140.571 155.11 138.502 156.503 137.099C158.095 135.597 160.483 135.309 162.383 136.393L221.329 169.981C222.762 170.796 223.259 172.627 222.444 174.06C221.628 175.492 219.807 175.99 218.374 175.174L162.484 143.328C162.176 143.149 161.808 143.438 161.907 143.786L171.995 176.666C172.274 177.571 172.104 178.556 171.547 179.312C170.98 180.078 170.095 180.526 169.14 180.526L169.138 180.525Z" fill="#FC2748"/>
<path d="M225.126 170.286C224.46 170.286 223.803 170.058 223.286 169.65L165.715 124.413C164.262 123.329 163.476 121.568 163.636 119.767C163.864 117.728 165.327 116.036 167.316 115.529L215.049 103.034C215.825 102.795 216.661 102.884 217.367 103.282C218.074 103.68 218.591 104.347 218.8 105.133C219.009 105.919 218.879 106.754 218.462 107.441C218.034 108.137 217.357 108.625 216.561 108.804L171.544 120.593C171.225 120.672 171.136 121.09 171.394 121.289L226.857 164.863C228.031 165.748 228.419 167.35 227.782 168.673C227.265 169.668 226.24 170.285 225.126 170.285L225.126 170.286Z" fill="#FC2748"/>
<path d="M166.501 103.305C164.521 103.305 162.73 102.141 161.934 100.32C161.138 98.5098 161.496 96.4006 162.849 94.9481L247.223 3.61105C248.357 2.48685 250.178 2.45703 251.342 3.54141C252.516 4.6258 252.625 6.43639 251.601 7.66014L169.486 96.5599C169.247 96.8285 169.436 97.2464 169.794 97.2364L214.214 95.8237V95.8137C215.865 95.764 217.238 97.0573 217.297 98.6988C217.357 100.35 216.064 101.733 214.412 101.783L166.659 103.305L166.501 103.305Z" fill="#FC2748"/>
<mask id="path-20-outside-1" maskUnits="userSpaceOnUse" x="107.543" y="97.9227" width="269" height="84" fill="black">
<rect fill="white" x="107.543" y="97.9227" width="269" height="84"/>
<path d="M115.976 130.836H145.863C147.361 130.836 148.795 130.135 150.166 128.732C151.33 127.543 152.182 126.12 152.722 124.463L154.475 119.076C155.015 117.423 155.09 116 154.699 114.808C154.242 113.404 153.264 112.703 151.767 112.703H127.302C127.342 112.703 127.333 112.615 127.276 112.44C127.153 112.049 127.186 111.567 127.375 110.993C127.559 110.423 127.84 109.94 128.218 109.546C128.389 109.375 128.455 109.289 128.416 109.289H154.073L159.39 101.923H127.216C125.719 101.923 124.282 102.626 122.907 104.034C121.748 105.227 120.9 106.65 120.364 108.303L118.605 113.689C118.069 115.342 117.994 116.765 118.381 117.958C118.838 119.361 119.815 120.063 121.313 120.063H145.777C145.738 120.063 145.747 120.15 145.804 120.326C145.927 120.716 145.894 121.198 145.705 121.773C145.52 122.343 145.239 122.825 144.861 123.22C144.69 123.391 144.624 123.476 144.664 123.476H115.455L115.976 130.836Z"/>
<path d="M196.235 109.289H169.563L168.456 112.703H198.067L192.756 120.063H166.058L164.951 123.476H194.535L189.224 130.836H155.193L164.602 101.923H201.552L196.235 109.289Z"/>
<path d="M237.877 109.289H211.956C211.851 109.289 211.682 109.408 211.449 109.644C211.089 110.017 210.823 110.467 210.652 110.993L207.146 121.773C206.975 122.299 206.946 122.748 207.061 123.121C207.14 123.358 207.232 123.476 207.337 123.476H236.17L230.866 130.836H201.348C199.995 130.836 199.103 130.168 198.673 128.83C198.278 127.616 198.357 126.16 198.91 124.463L204.168 108.303C204.722 106.601 205.591 105.146 206.777 103.935C208.082 102.594 209.408 101.923 210.757 101.923H243.194L237.877 109.289Z"/>
<path d="M247.885 101.923H280.461C281.814 101.923 282.705 102.594 283.136 103.935C283.536 105.15 283.459 106.606 282.905 108.303L280.296 116.32C279.743 118.022 278.871 119.477 277.68 120.688C276.376 122.025 275.049 122.694 273.701 122.694H273.213L275.868 130.836H267.323L264.667 122.694H248.485L244.413 135.217L237.995 132.316L243.523 115.334H272.501C272.607 115.334 272.778 115.213 273.015 114.972C273.336 114.648 273.58 114.253 273.747 113.788C273.769 113.735 274.089 112.76 274.709 110.861C274.849 110.423 274.862 110.017 274.748 109.644C274.669 109.408 274.577 109.289 274.471 109.289H248.412L247.885 101.923Z"/>
<path d="M321.16 109.289H294.489L293.382 112.703H322.992L317.681 120.063H290.983L289.876 123.476H319.46L314.15 130.836H280.118L289.527 101.923H326.478L321.16 109.289Z"/>
<path d="M331.202 101.923H368.614L363.296 109.289H351.225L342.785 135.217L336.368 132.316L343.859 109.289H331.722L331.202 101.923Z"/>
<path d="M112.543 172.727L122.433 142.333H129.793L126.287 153.113H148.657L152.162 142.333H159.528L150.119 171.247H142.753L146.258 160.473H123.889L118.961 175.627L112.543 172.727Z"/>
<path d="M195.708 149.7H169.036L167.929 153.113H197.54L192.229 160.473H165.531L164.424 163.887H194.008L188.697 171.247H154.666L164.075 142.333H201.025L195.708 149.7Z"/>
<path d="M205.716 142.333H238.292C239.645 142.333 240.537 143.004 240.967 144.346C241.367 145.561 241.29 147.016 240.736 148.713L238.127 156.731C237.574 158.432 236.702 159.888 235.511 161.098C234.207 162.436 232.88 163.104 231.532 163.104H231.044L233.699 171.247H225.154L222.498 163.104H206.316L202.244 175.627L195.827 172.727L201.355 155.744H230.333C230.438 155.744 230.609 155.624 230.846 155.383C231.167 155.058 231.411 154.663 231.578 154.199C231.6 154.146 231.92 153.17 232.54 151.272C232.68 150.833 232.694 150.428 232.579 150.055C232.5 149.818 232.408 149.7 232.303 149.7H206.244L205.716 142.333Z"/>
<path d="M269.319 163.887C269.424 163.887 269.596 163.769 269.833 163.532C270.193 163.159 270.459 162.71 270.63 162.183L274.135 151.403C274.307 150.877 274.335 150.428 274.221 150.055C274.138 149.818 274.043 149.7 273.938 149.7H253.005C252.899 149.7 252.73 149.818 252.498 150.055C252.137 150.428 251.872 150.877 251.7 151.403L248.195 162.183C248.024 162.71 247.995 163.159 248.109 163.532C248.188 163.769 248.281 163.887 248.386 163.887H269.319ZM242.463 171.247C241.11 171.247 240.218 170.578 239.788 169.241C239.392 168.026 239.471 166.57 240.025 164.874L245.283 148.713C245.836 147.012 246.706 145.556 247.892 144.346C249.197 143.004 250.523 142.333 251.872 142.333H279.934C281.287 142.333 282.178 143.004 282.609 144.346C283.009 145.561 282.932 147.016 282.378 148.713L277.12 164.874C276.567 166.575 275.695 168.031 274.504 169.241C273.2 170.578 271.873 171.247 270.525 171.247H242.463Z"/>
<path d="M320.633 149.7H293.961L292.855 153.113H322.465L317.154 160.473H290.456L289.349 163.887H318.933L313.623 171.247H279.591L289 142.333H325.95L320.633 149.7Z"/>
<path d="M324.185 171.247H354.072C355.57 171.247 357.004 170.545 358.374 169.142C359.538 167.954 360.391 166.531 360.931 164.874L362.684 159.487C363.224 157.834 363.299 156.411 362.908 155.218C362.451 153.815 361.473 153.113 359.976 153.113H335.511C335.551 153.113 335.542 153.026 335.485 152.85C335.362 152.46 335.395 151.978 335.583 151.403C335.768 150.833 336.049 150.351 336.427 149.956C336.598 149.785 336.664 149.7 336.624 149.7H362.282L367.599 142.333H335.425C333.927 142.333 332.491 143.037 331.116 144.445C329.957 145.637 329.109 147.06 328.573 148.713L326.814 154.1C326.278 155.753 326.203 157.176 326.59 158.369C327.046 159.772 328.024 160.473 329.522 160.473H353.986C353.947 160.473 353.955 160.561 354.013 160.736C354.136 161.127 354.103 161.609 353.914 162.183C353.729 162.753 353.448 163.236 353.07 163.63C352.899 163.801 352.833 163.887 352.873 163.887H323.664L324.185 171.247Z"/>
</mask>
<path d="M115.976 130.836H145.863C147.361 130.836 148.795 130.135 150.166 128.732C151.33 127.543 152.182 126.12 152.722 124.463L154.475 119.076C155.015 117.423 155.09 116 154.699 114.808C154.242 113.404 153.264 112.703 151.767 112.703H127.302C127.342 112.703 127.333 112.615 127.276 112.44C127.153 112.049 127.186 111.567 127.375 110.993C127.559 110.423 127.84 109.94 128.218 109.546C128.389 109.375 128.455 109.289 128.416 109.289H154.073L159.39 101.923H127.216C125.719 101.923 124.282 102.626 122.907 104.034C121.748 105.227 120.9 106.65 120.364 108.303L118.605 113.689C118.069 115.342 117.994 116.765 118.381 117.958C118.838 119.361 119.815 120.063 121.313 120.063H145.777C145.738 120.063 145.747 120.15 145.804 120.326C145.927 120.716 145.894 121.198 145.705 121.773C145.52 122.343 145.239 122.825 144.861 123.22C144.69 123.391 144.624 123.476 144.664 123.476H115.455L115.976 130.836Z" fill="black"/>
<path d="M196.235 109.289H169.563L168.456 112.703H198.067L192.756 120.063H166.058L164.951 123.476H194.535L189.224 130.836H155.193L164.602 101.923H201.552L196.235 109.289Z" fill="black"/>
<path d="M237.877 109.289H211.956C211.851 109.289 211.682 109.408 211.449 109.644C211.089 110.017 210.823 110.467 210.652 110.993L207.146 121.773C206.975 122.299 206.946 122.748 207.061 123.121C207.14 123.358 207.232 123.476 207.337 123.476H236.17L230.866 130.836H201.348C199.995 130.836 199.103 130.168 198.673 128.83C198.278 127.616 198.357 126.16 198.91 124.463L204.168 108.303C204.722 106.601 205.591 105.146 206.777 103.935C208.082 102.594 209.408 101.923 210.757 101.923H243.194L237.877 109.289Z" fill="black"/>
<path d="M247.885 101.923H280.461C281.814 101.923 282.705 102.594 283.136 103.935C283.536 105.15 283.459 106.606 282.905 108.303L280.296 116.32C279.743 118.022 278.871 119.477 277.68 120.688C276.376 122.025 275.049 122.694 273.701 122.694H273.213L275.868 130.836H267.323L264.667 122.694H248.485L244.413 135.217L237.995 132.316L243.523 115.334H272.501C272.607 115.334 272.778 115.213 273.015 114.972C273.336 114.648 273.58 114.253 273.747 113.788C273.769 113.735 274.089 112.76 274.709 110.861C274.849 110.423 274.862 110.017 274.748 109.644C274.669 109.408 274.577 109.289 274.471 109.289H248.412L247.885 101.923Z" fill="black"/>
<path d="M321.16 109.289H294.489L293.382 112.703H322.992L317.681 120.063H290.983L289.876 123.476H319.46L314.15 130.836H280.118L289.527 101.923H326.478L321.16 109.289Z" fill="black"/>
<path d="M331.202 101.923H368.614L363.296 109.289H351.225L342.785 135.217L336.368 132.316L343.859 109.289H331.722L331.202 101.923Z" fill="black"/>
<path d="M112.543 172.727L122.433 142.333H129.793L126.287 153.113H148.657L152.162 142.333H159.528L150.119 171.247H142.753L146.258 160.473H123.889L118.961 175.627L112.543 172.727Z" fill="black"/>
<path d="M195.708 149.7H169.036L167.929 153.113H197.54L192.229 160.473H165.531L164.424 163.887H194.008L188.697 171.247H154.666L164.075 142.333H201.025L195.708 149.7Z" fill="black"/>
<path d="M205.716 142.333H238.292C239.645 142.333 240.537 143.004 240.967 144.346C241.367 145.561 241.29 147.016 240.736 148.713L238.127 156.731C237.574 158.432 236.702 159.888 235.511 161.098C234.207 162.436 232.88 163.104 231.532 163.104H231.044L233.699 171.247H225.154L222.498 163.104H206.316L202.244 175.627L195.827 172.727L201.355 155.744H230.333C230.438 155.744 230.609 155.624 230.846 155.383C231.167 155.058 231.411 154.663 231.578 154.199C231.6 154.146 231.92 153.17 232.54 151.272C232.68 150.833 232.694 150.428 232.579 150.055C232.5 149.818 232.408 149.7 232.303 149.7H206.244L205.716 142.333Z" fill="black"/>
<path d="M269.319 163.887C269.424 163.887 269.596 163.769 269.833 163.532C270.193 163.159 270.459 162.71 270.63 162.183L274.135 151.403C274.307 150.877 274.335 150.428 274.221 150.055C274.138 149.818 274.043 149.7 273.938 149.7H253.005C252.899 149.7 252.73 149.818 252.498 150.055C252.137 150.428 251.872 150.877 251.7 151.403L248.195 162.183C248.024 162.71 247.995 163.159 248.109 163.532C248.188 163.769 248.281 163.887 248.386 163.887H269.319ZM242.463 171.247C241.11 171.247 240.218 170.578 239.788 169.241C239.392 168.026 239.471 166.57 240.025 164.874L245.283 148.713C245.836 147.012 246.706 145.556 247.892 144.346C249.197 143.004 250.523 142.333 251.872 142.333H279.934C281.287 142.333 282.178 143.004 282.609 144.346C283.009 145.561 282.932 147.016 282.378 148.713L277.12 164.874C276.567 166.575 275.695 168.031 274.504 169.241C273.2 170.578 271.873 171.247 270.525 171.247H242.463Z" fill="black"/>
<path d="M320.633 149.7H293.961L292.855 153.113H322.465L317.154 160.473H290.456L289.349 163.887H318.933L313.623 171.247H279.591L289 142.333H325.95L320.633 149.7Z" fill="black"/>
<path d="M324.185 171.247H354.072C355.57 171.247 357.004 170.545 358.374 169.142C359.538 167.954 360.391 166.531 360.931 164.874L362.684 159.487C363.224 157.834 363.299 156.411 362.908 155.218C362.451 153.815 361.473 153.113 359.976 153.113H335.511C335.551 153.113 335.542 153.026 335.485 152.85C335.362 152.46 335.395 151.978 335.583 151.403C335.768 150.833 336.049 150.351 336.427 149.956C336.598 149.785 336.664 149.7 336.624 149.7H362.282L367.599 142.333H335.425C333.927 142.333 332.491 143.037 331.116 144.445C329.957 145.637 329.109 147.06 328.573 148.713L326.814 154.1C326.278 155.753 326.203 157.176 326.59 158.369C327.046 159.772 328.024 160.473 329.522 160.473H353.986C353.947 160.473 353.955 160.561 354.013 160.736C354.136 161.127 354.103 161.609 353.914 162.183C353.729 162.753 353.448 163.236 353.07 163.63C352.899 163.801 352.833 163.887 352.873 163.887H323.664L324.185 171.247Z" fill="black"/>
<path d="M115.976 130.836H145.863C147.361 130.836 148.795 130.135 150.166 128.732C151.33 127.543 152.182 126.12 152.722 124.463L154.475 119.076C155.015 117.423 155.09 116 154.699 114.808C154.242 113.404 153.264 112.703 151.767 112.703H127.302C127.342 112.703 127.333 112.615 127.276 112.44C127.153 112.049 127.186 111.567 127.375 110.993C127.559 110.423 127.84 109.94 128.218 109.546C128.389 109.375 128.455 109.289 128.416 109.289H154.073L159.39 101.923H127.216C125.719 101.923 124.282 102.626 122.907 104.034C121.748 105.227 120.9 106.65 120.364 108.303L118.605 113.689C118.069 115.342 117.994 116.765 118.381 117.958C118.838 119.361 119.815 120.063 121.313 120.063H145.777C145.738 120.063 145.747 120.15 145.804 120.326C145.927 120.716 145.894 121.198 145.705 121.773C145.52 122.343 145.239 122.825 144.861 123.22C144.69 123.391 144.624 123.476 144.664 123.476H115.455L115.976 130.836Z" stroke="#ABAFB6" stroke-width="8" mask="url(#path-20-outside-1)"/>
<path d="M196.235 109.289H169.563L168.456 112.703H198.067L192.756 120.063H166.058L164.951 123.476H194.535L189.224 130.836H155.193L164.602 101.923H201.552L196.235 109.289Z" stroke="#ABAFB6" stroke-width="8" mask="url(#path-20-outside-1)"/>
<path d="M237.877 109.289H211.956C211.851 109.289 211.682 109.408 211.449 109.644C211.089 110.017 210.823 110.467 210.652 110.993L207.146 121.773C206.975 122.299 206.946 122.748 207.061 123.121C207.14 123.358 207.232 123.476 207.337 123.476H236.17L230.866 130.836H201.348C199.995 130.836 199.103 130.168 198.673 128.83C198.278 127.616 198.357 126.16 198.91 124.463L204.168 108.303C204.722 106.601 205.591 105.146 206.777 103.935C208.082 102.594 209.408 101.923 210.757 101.923H243.194L237.877 109.289Z" stroke="#ABAFB6" stroke-width="8" mask="url(#path-20-outside-1)"/>
<path d="M247.885 101.923H280.461C281.814 101.923 282.705 102.594 283.136 103.935C283.536 105.15 283.459 106.606 282.905 108.303L280.296 116.32C279.743 118.022 278.871 119.477 277.68 120.688C276.376 122.025 275.049 122.694 273.701 122.694H273.213L275.868 130.836H267.323L264.667 122.694H248.485L244.413 135.217L237.995 132.316L243.523 115.334H272.501C272.607 115.334 272.778 115.213 273.015 114.972C273.336 114.648 273.58 114.253 273.747 113.788C273.769 113.735 274.089 112.76 274.709 110.861C274.849 110.423 274.862 110.017 274.748 109.644C274.669 109.408 274.577 109.289 274.471 109.289H248.412L247.885 101.923Z" stroke="#ABAFB6" stroke-width="8" mask="url(#path-20-outside-1)"/>
<path d="M321.16 109.289H294.489L293.382 112.703H322.992L317.681 120.063H290.983L289.876 123.476H319.46L314.15 130.836H280.118L289.527 101.923H326.478L321.16 109.289Z" stroke="#ABAFB6" stroke-width="8" mask="url(#path-20-outside-1)"/>
<path d="M331.202 101.923H368.614L363.296 109.289H351.225L342.785 135.217L336.368 132.316L343.859 109.289H331.722L331.202 101.923Z" stroke="#ABAFB6" stroke-width="8" mask="url(#path-20-outside-1)"/>
<path d="M112.543 172.727L122.433 142.333H129.793L126.287 153.113H148.657L152.162 142.333H159.528L150.119 171.247H142.753L146.258 160.473H123.889L118.961 175.627L112.543 172.727Z" stroke="#ABAFB6" stroke-width="8" mask="url(#path-20-outside-1)"/>
<path d="M195.708 149.7H169.036L167.929 153.113H197.54L192.229 160.473H165.531L164.424 163.887H194.008L188.697 171.247H154.666L164.075 142.333H201.025L195.708 149.7Z" stroke="#ABAFB6" stroke-width="8" mask="url(#path-20-outside-1)"/>
<path d="M205.716 142.333H238.292C239.645 142.333 240.537 143.004 240.967 144.346C241.367 145.561 241.29 147.016 240.736 148.713L238.127 156.731C237.574 158.432 236.702 159.888 235.511 161.098C234.207 162.436 232.88 163.104 231.532 163.104H231.044L233.699 171.247H225.154L222.498 163.104H206.316L202.244 175.627L195.827 172.727L201.355 155.744H230.333C230.438 155.744 230.609 155.624 230.846 155.383C231.167 155.058 231.411 154.663 231.578 154.199C231.6 154.146 231.92 153.17 232.54 151.272C232.68 150.833 232.694 150.428 232.579 150.055C232.5 149.818 232.408 149.7 232.303 149.7H206.244L205.716 142.333Z" stroke="#ABAFB6" stroke-width="8" mask="url(#path-20-outside-1)"/>
<path d="M269.319 163.887C269.424 163.887 269.596 163.769 269.833 163.532C270.193 163.159 270.459 162.71 270.63 162.183L274.135 151.403C274.307 150.877 274.335 150.428 274.221 150.055C274.138 149.818 274.043 149.7 273.938 149.7H253.005C252.899 149.7 252.73 149.818 252.498 150.055C252.137 150.428 251.872 150.877 251.7 151.403L248.195 162.183C248.024 162.71 247.995 163.159 248.109 163.532C248.188 163.769 248.281 163.887 248.386 163.887H269.319ZM242.463 171.247C241.11 171.247 240.218 170.578 239.788 169.241C239.392 168.026 239.471 166.57 240.025 164.874L245.283 148.713C245.836 147.012 246.706 145.556 247.892 144.346C249.197 143.004 250.523 142.333 251.872 142.333H279.934C281.287 142.333 282.178 143.004 282.609 144.346C283.009 145.561 282.932 147.016 282.378 148.713L277.12 164.874C276.567 166.575 275.695 168.031 274.504 169.241C273.2 170.578 271.873 171.247 270.525 171.247H242.463Z" stroke="#ABAFB6" stroke-width="8" mask="url(#path-20-outside-1)"/>
<path d="M320.633 149.7H293.961L292.855 153.113H322.465L317.154 160.473H290.456L289.349 163.887H318.933L313.623 171.247H279.591L289 142.333H325.95L320.633 149.7Z" stroke="#ABAFB6" stroke-width="8" mask="url(#path-20-outside-1)"/>
<path d="M324.185 171.247H354.072C355.57 171.247 357.004 170.545 358.374 169.142C359.538 167.954 360.391 166.531 360.931 164.874L362.684 159.487C363.224 157.834 363.299 156.411 362.908 155.218C362.451 153.815 361.473 153.113 359.976 153.113H335.511C335.551 153.113 335.542 153.026 335.485 152.85C335.362 152.46 335.395 151.978 335.583 151.403C335.768 150.833 336.049 150.351 336.427 149.956C336.598 149.785 336.664 149.7 336.624 149.7H362.282L367.599 142.333H335.425C333.927 142.333 332.491 143.037 331.116 144.445C329.957 145.637 329.109 147.06 328.573 148.713L326.814 154.1C326.278 155.753 326.203 157.176 326.59 158.369C327.046 159.772 328.024 160.473 329.522 160.473H353.986C353.947 160.473 353.955 160.561 354.013 160.736C354.136 161.127 354.103 161.609 353.914 162.183C353.729 162.753 353.448 163.236 353.07 163.63C352.899 163.801 352.833 163.887 352.873 163.887H323.664L324.185 171.247Z" stroke="#ABAFB6" stroke-width="8" mask="url(#path-20-outside-1)"/>
<mask id="path-21-outside-2" maskUnits="userSpaceOnUse" x="109.543" y="99.9227" width="263" height="79" fill="black">
<rect fill="white" x="109.543" y="99.9227" width="263" height="79"/>
<path d="M115.976 130.836H145.863C147.361 130.836 148.795 130.135 150.166 128.732C151.33 127.543 152.182 126.12 152.722 124.463L154.475 119.076C155.015 117.423 155.09 116 154.699 114.808C154.242 113.404 153.264 112.703 151.767 112.703H127.302C127.342 112.703 127.333 112.615 127.276 112.44C127.153 112.049 127.186 111.567 127.375 110.993C127.559 110.423 127.84 109.94 128.218 109.546C128.389 109.375 128.455 109.289 128.416 109.289H154.073L159.39 101.923H127.216C125.719 101.923 124.282 102.626 122.907 104.034C121.748 105.227 120.9 106.65 120.364 108.303L118.605 113.689C118.069 115.342 117.994 116.765 118.381 117.958C118.838 119.361 119.815 120.063 121.313 120.063H145.777C145.738 120.063 145.747 120.15 145.804 120.326C145.927 120.716 145.894 121.198 145.705 121.773C145.52 122.343 145.239 122.825 144.861 123.22C144.69 123.391 144.624 123.476 144.664 123.476H115.455L115.976 130.836Z"/>
<path d="M196.235 109.289H169.563L168.456 112.703H198.067L192.756 120.063H166.058L164.951 123.476H194.535L189.224 130.836H155.193L164.602 101.923H201.552L196.235 109.289Z"/>
<path d="M237.877 109.289H211.956C211.851 109.289 211.682 109.408 211.449 109.644C211.089 110.017 210.823 110.467 210.652 110.993L207.146 121.773C206.975 122.299 206.946 122.748 207.061 123.121C207.14 123.358 207.232 123.476 207.337 123.476H236.17L230.866 130.836H201.348C199.995 130.836 199.103 130.168 198.673 128.83C198.278 127.616 198.357 126.16 198.91 124.463L204.168 108.303C204.722 106.601 205.591 105.146 206.777 103.935C208.082 102.594 209.408 101.923 210.757 101.923H243.194L237.877 109.289Z"/>
<path d="M247.885 101.923H280.461C281.814 101.923 282.705 102.594 283.136 103.935C283.536 105.15 283.459 106.606 282.905 108.303L280.296 116.32C279.743 118.022 278.871 119.477 277.68 120.688C276.376 122.025 275.049 122.694 273.701 122.694H273.213L275.868 130.836H267.323L264.667 122.694H248.485L244.413 135.217L237.995 132.316L243.523 115.334H272.501C272.607 115.334 272.778 115.213 273.015 114.972C273.336 114.648 273.58 114.253 273.747 113.788C273.769 113.735 274.089 112.76 274.709 110.861C274.849 110.423 274.862 110.017 274.748 109.644C274.669 109.408 274.577 109.289 274.471 109.289H248.412L247.885 101.923Z"/>
<path d="M321.16 109.289H294.489L293.382 112.703H322.992L317.681 120.063H290.983L289.876 123.476H319.46L314.15 130.836H280.118L289.527 101.923H326.478L321.16 109.289Z"/>
<path d="M331.202 101.923H368.614L363.296 109.289H351.225L342.785 135.217L336.368 132.316L343.859 109.289H331.722L331.202 101.923Z"/>
<path d="M112.543 172.727L122.433 142.333H129.793L126.287 153.113H148.657L152.162 142.333H159.528L150.119 171.247H142.753L146.258 160.473H123.889L118.961 175.627L112.543 172.727Z"/>
<path d="M195.708 149.7H169.036L167.929 153.113H197.54L192.229 160.473H165.531L164.424 163.887H194.008L188.697 171.247H154.666L164.075 142.333H201.025L195.708 149.7Z"/>
<path d="M205.716 142.333H238.292C239.645 142.333 240.537 143.004 240.967 144.346C241.367 145.561 241.29 147.016 240.736 148.713L238.127 156.731C237.574 158.432 236.702 159.888 235.511 161.098C234.207 162.436 232.88 163.104 231.532 163.104H231.044L233.699 171.247H225.154L222.498 163.104H206.316L202.244 175.627L195.827 172.727L201.355 155.744H230.333C230.438 155.744 230.609 155.624 230.846 155.383C231.167 155.058 231.411 154.663 231.578 154.199C231.6 154.146 231.92 153.17 232.54 151.272C232.68 150.833 232.694 150.428 232.579 150.055C232.5 149.818 232.408 149.7 232.303 149.7H206.244L205.716 142.333Z"/>
<path d="M269.319 163.887C269.424 163.887 269.596 163.769 269.833 163.532C270.193 163.159 270.459 162.71 270.63 162.183L274.135 151.403C274.307 150.877 274.335 150.428 274.221 150.055C274.138 149.818 274.043 149.7 273.938 149.7H253.005C252.899 149.7 252.73 149.818 252.498 150.055C252.137 150.428 251.872 150.877 251.7 151.403L248.195 162.183C248.024 162.71 247.995 163.159 248.109 163.532C248.188 163.769 248.281 163.887 248.386 163.887H269.319ZM242.463 171.247C241.11 171.247 240.218 170.578 239.788 169.241C239.392 168.026 239.471 166.57 240.025 164.874L245.283 148.713C245.836 147.012 246.706 145.556 247.892 144.346C249.197 143.004 250.523 142.333 251.872 142.333H279.934C281.287 142.333 282.178 143.004 282.609 144.346C283.009 145.561 282.932 147.016 282.378 148.713L277.12 164.874C276.567 166.575 275.695 168.031 274.504 169.241C273.2 170.578 271.873 171.247 270.525 171.247H242.463Z"/>
<path d="M320.633 149.7H293.961L292.855 153.113H322.465L317.154 160.473H290.456L289.349 163.887H318.933L313.623 171.247H279.591L289 142.333H325.95L320.633 149.7Z"/>
<path d="M324.185 171.247H354.072C355.57 171.247 357.004 170.545 358.374 169.142C359.538 167.954 360.391 166.531 360.931 164.874L362.684 159.487C363.224 157.834 363.299 156.411 362.908 155.218C362.451 153.815 361.473 153.113 359.976 153.113H335.511C335.551 153.113 335.542 153.026 335.485 152.85C335.362 152.46 335.395 151.978 335.583 151.403C335.768 150.833 336.049 150.351 336.427 149.956C336.598 149.785 336.664 149.7 336.624 149.7H362.282L367.599 142.333H335.425C333.927 142.333 332.491 143.037 331.116 144.445C329.957 145.637 329.109 147.06 328.573 148.713L326.814 154.1C326.278 155.753 326.203 157.176 326.59 158.369C327.046 159.772 328.024 160.473 329.522 160.473H353.986C353.947 160.473 353.955 160.561 354.013 160.736C354.136 161.127 354.103 161.609 353.914 162.183C353.729 162.753 353.448 163.236 353.07 163.63C352.899 163.801 352.833 163.887 352.873 163.887H323.664L324.185 171.247Z"/>
</mask>
<path d="M115.976 130.836H145.863C147.361 130.836 148.795 130.135 150.166 128.732C151.33 127.543 152.182 126.12 152.722 124.463L154.475 119.076C155.015 117.423 155.09 116 154.699 114.808C154.242 113.404 153.264 112.703 151.767 112.703H127.302C127.342 112.703 127.333 112.615 127.276 112.44C127.153 112.049 127.186 111.567 127.375 110.993C127.559 110.423 127.84 109.94 128.218 109.546C128.389 109.375 128.455 109.289 128.416 109.289H154.073L159.39 101.923H127.216C125.719 101.923 124.282 102.626 122.907 104.034C121.748 105.227 120.9 106.65 120.364 108.303L118.605 113.689C118.069 115.342 117.994 116.765 118.381 117.958C118.838 119.361 119.815 120.063 121.313 120.063H145.777C145.738 120.063 145.747 120.15 145.804 120.326C145.927 120.716 145.894 121.198 145.705 121.773C145.52 122.343 145.239 122.825 144.861 123.22C144.69 123.391 144.624 123.476 144.664 123.476H115.455L115.976 130.836Z" fill="black"/>
<path d="M196.235 109.289H169.563L168.456 112.703H198.067L192.756 120.063H166.058L164.951 123.476H194.535L189.224 130.836H155.193L164.602 101.923H201.552L196.235 109.289Z" fill="black"/>
<path d="M237.877 109.289H211.956C211.851 109.289 211.682 109.408 211.449 109.644C211.089 110.017 210.823 110.467 210.652 110.993L207.146 121.773C206.975 122.299 206.946 122.748 207.061 123.121C207.14 123.358 207.232 123.476 207.337 123.476H236.17L230.866 130.836H201.348C199.995 130.836 199.103 130.168 198.673 128.83C198.278 127.616 198.357 126.16 198.91 124.463L204.168 108.303C204.722 106.601 205.591 105.146 206.777 103.935C208.082 102.594 209.408 101.923 210.757 101.923H243.194L237.877 109.289Z" fill="black"/>
<path d="M247.885 101.923H280.461C281.814 101.923 282.705 102.594 283.136 103.935C283.536 105.15 283.459 106.606 282.905 108.303L280.296 116.32C279.743 118.022 278.871 119.477 277.68 120.688C276.376 122.025 275.049 122.694 273.701 122.694H273.213L275.868 130.836H267.323L264.667 122.694H248.485L244.413 135.217L237.995 132.316L243.523 115.334H272.501C272.607 115.334 272.778 115.213 273.015 114.972C273.336 114.648 273.58 114.253 273.747 113.788C273.769 113.735 274.089 112.76 274.709 110.861C274.849 110.423 274.862 110.017 274.748 109.644C274.669 109.408 274.577 109.289 274.471 109.289H248.412L247.885 101.923Z" fill="black"/>
<path d="M321.16 109.289H294.489L293.382 112.703H322.992L317.681 120.063H290.983L289.876 123.476H319.46L314.15 130.836H280.118L289.527 101.923H326.478L321.16 109.289Z" fill="black"/>
<path d="M331.202 101.923H368.614L363.296 109.289H351.225L342.785 135.217L336.368 132.316L343.859 109.289H331.722L331.202 101.923Z" fill="black"/>
<path d="M112.543 172.727L122.433 142.333H129.793L126.287 153.113H148.657L152.162 142.333H159.528L150.119 171.247H142.753L146.258 160.473H123.889L118.961 175.627L112.543 172.727Z" fill="black"/>
<path d="M195.708 149.7H169.036L167.929 153.113H197.54L192.229 160.473H165.531L164.424 163.887H194.008L188.697 171.247H154.666L164.075 142.333H201.025L195.708 149.7Z" fill="black"/>
<path d="M205.716 142.333H238.292C239.645 142.333 240.537 143.004 240.967 144.346C241.367 145.561 241.29 147.016 240.736 148.713L238.127 156.731C237.574 158.432 236.702 159.888 235.511 161.098C234.207 162.436 232.88 163.104 231.532 163.104H231.044L233.699 171.247H225.154L222.498 163.104H206.316L202.244 175.627L195.827 172.727L201.355 155.744H230.333C230.438 155.744 230.609 155.624 230.846 155.383C231.167 155.058 231.411 154.663 231.578 154.199C231.6 154.146 231.92 153.17 232.54 151.272C232.68 150.833 232.694 150.428 232.579 150.055C232.5 149.818 232.408 149.7 232.303 149.7H206.244L205.716 142.333Z" fill="black"/>
<path d="M269.319 163.887C269.424 163.887 269.596 163.769 269.833 163.532C270.193 163.159 270.459 162.71 270.63 162.183L274.135 151.403C274.307 150.877 274.335 150.428 274.221 150.055C274.138 149.818 274.043 149.7 273.938 149.7H253.005C252.899 149.7 252.73 149.818 252.498 150.055C252.137 150.428 251.872 150.877 251.7 151.403L248.195 162.183C248.024 162.71 247.995 163.159 248.109 163.532C248.188 163.769 248.281 163.887 248.386 163.887H269.319ZM242.463 171.247C241.11 171.247 240.218 170.578 239.788 169.241C239.392 168.026 239.471 166.57 240.025 164.874L245.283 148.713C245.836 147.012 246.706 145.556 247.892 144.346C249.197 143.004 250.523 142.333 251.872 142.333H279.934C281.287 142.333 282.178 143.004 282.609 144.346C283.009 145.561 282.932 147.016 282.378 148.713L277.12 164.874C276.567 166.575 275.695 168.031 274.504 169.241C273.2 170.578 271.873 171.247 270.525 171.247H242.463Z" fill="black"/>
<path d="M320.633 149.7H293.961L292.855 153.113H322.465L317.154 160.473H290.456L289.349 163.887H318.933L313.623 171.247H279.591L289 142.333H325.95L320.633 149.7Z" fill="black"/>
<path d="M324.185 171.247H354.072C355.57 171.247 357.004 170.545 358.374 169.142C359.538 167.954 360.391 166.531 360.931 164.874L362.684 159.487C363.224 157.834 363.299 156.411 362.908 155.218C362.451 153.815 361.473 153.113 359.976 153.113H335.511C335.551 153.113 335.542 153.026 335.485 152.85C335.362 152.46 335.395 151.978 335.583 151.403C335.768 150.833 336.049 150.351 336.427 149.956C336.598 149.785 336.664 149.7 336.624 149.7H362.282L367.599 142.333H335.425C333.927 142.333 332.491 143.037 331.116 144.445C329.957 145.637 329.109 147.06 328.573 148.713L326.814 154.1C326.278 155.753 326.203 157.176 326.59 158.369C327.046 159.772 328.024 160.473 329.522 160.473H353.986C353.947 160.473 353.955 160.561 354.013 160.736C354.136 161.127 354.103 161.609 353.914 162.183C353.729 162.753 353.448 163.236 353.07 163.63C352.899 163.801 352.833 163.887 352.873 163.887H323.664L324.185 171.247Z" fill="black"/>
<path d="M115.976 130.836H145.863C147.361 130.836 148.795 130.135 150.166 128.732C151.33 127.543 152.182 126.12 152.722 124.463L154.475 119.076C155.015 117.423 155.09 116 154.699 114.808C154.242 113.404 153.264 112.703 151.767 112.703H127.302C127.342 112.703 127.333 112.615 127.276 112.44C127.153 112.049 127.186 111.567 127.375 110.993C127.559 110.423 127.84 109.94 128.218 109.546C128.389 109.375 128.455 109.289 128.416 109.289H154.073L159.39 101.923H127.216C125.719 101.923 124.282 102.626 122.907 104.034C121.748 105.227 120.9 106.65 120.364 108.303L118.605 113.689C118.069 115.342 117.994 116.765 118.381 117.958C118.838 119.361 119.815 120.063 121.313 120.063H145.777C145.738 120.063 145.747 120.15 145.804 120.326C145.927 120.716 145.894 121.198 145.705 121.773C145.52 122.343 145.239 122.825 144.861 123.22C144.69 123.391 144.624 123.476 144.664 123.476H115.455L115.976 130.836Z" stroke="white" stroke-width="4" mask="url(#path-21-outside-2)"/>
<path d="M196.235 109.289H169.563L168.456 112.703H198.067L192.756 120.063H166.058L164.951 123.476H194.535L189.224 130.836H155.193L164.602 101.923H201.552L196.235 109.289Z" stroke="white" stroke-width="4" mask="url(#path-21-outside-2)"/>
<path d="M237.877 109.289H211.956C211.851 109.289 211.682 109.408 211.449 109.644C211.089 110.017 210.823 110.467 210.652 110.993L207.146 121.773C206.975 122.299 206.946 122.748 207.061 123.121C207.14 123.358 207.232 123.476 207.337 123.476H236.17L230.866 130.836H201.348C199.995 130.836 199.103 130.168 198.673 128.83C198.278 127.616 198.357 126.16 198.91 124.463L204.168 108.303C204.722 106.601 205.591 105.146 206.777 103.935C208.082 102.594 209.408 101.923 210.757 101.923H243.194L237.877 109.289Z" stroke="white" stroke-width="4" mask="url(#path-21-outside-2)"/>
<path d="M247.885 101.923H280.461C281.814 101.923 282.705 102.594 283.136 103.935C283.536 105.15 283.459 106.606 282.905 108.303L280.296 116.32C279.743 118.022 278.871 119.477 277.68 120.688C276.376 122.025 275.049 122.694 273.701 122.694H273.213L275.868 130.836H267.323L264.667 122.694H248.485L244.413 135.217L237.995 132.316L243.523 115.334H272.501C272.607 115.334 272.778 115.213 273.015 114.972C273.336 114.648 273.58 114.253 273.747 113.788C273.769 113.735 274.089 112.76 274.709 110.861C274.849 110.423 274.862 110.017 274.748 109.644C274.669 109.408 274.577 109.289 274.471 109.289H248.412L247.885 101.923Z" stroke="white" stroke-width="4" mask="url(#path-21-outside-2)"/>
<path d="M321.16 109.289H294.489L293.382 112.703H322.992L317.681 120.063H290.983L289.876 123.476H319.46L314.15 130.836H280.118L289.527 101.923H326.478L321.16 109.289Z" stroke="white" stroke-width="4" mask="url(#path-21-outside-2)"/>
<path d="M331.202 101.923H368.614L363.296 109.289H351.225L342.785 135.217L336.368 132.316L343.859 109.289H331.722L331.202 101.923Z" stroke="white" stroke-width="4" mask="url(#path-21-outside-2)"/>
<path d="M112.543 172.727L122.433 142.333H129.793L126.287 153.113H148.657L152.162 142.333H159.528L150.119 171.247H142.753L146.258 160.473H123.889L118.961 175.627L112.543 172.727Z" stroke="white" stroke-width="4" mask="url(#path-21-outside-2)"/>
<path d="M195.708 149.7H169.036L167.929 153.113H197.54L192.229 160.473H165.531L164.424 163.887H194.008L188.697 171.247H154.666L164.075 142.333H201.025L195.708 149.7Z" stroke="white" stroke-width="4" mask="url(#path-21-outside-2)"/>
<path d="M205.716 142.333H238.292C239.645 142.333 240.537 143.004 240.967 144.346C241.367 145.561 241.29 147.016 240.736 148.713L238.127 156.731C237.574 158.432 236.702 159.888 235.511 161.098C234.207 162.436 232.88 163.104 231.532 163.104H231.044L233.699 171.247H225.154L222.498 163.104H206.316L202.244 175.627L195.827 172.727L201.355 155.744H230.333C230.438 155.744 230.609 155.624 230.846 155.383C231.167 155.058 231.411 154.663 231.578 154.199C231.6 154.146 231.92 153.17 232.54 151.272C232.68 150.833 232.694 150.428 232.579 150.055C232.5 149.818 232.408 149.7 232.303 149.7H206.244L205.716 142.333Z" stroke="white" stroke-width="4" mask="url(#path-21-outside-2)"/>
<path d="M269.319 163.887C269.424 163.887 269.596 163.769 269.833 163.532C270.193 163.159 270.459 162.71 270.63 162.183L274.135 151.403C274.307 150.877 274.335 150.428 274.221 150.055C274.138 149.818 274.043 149.7 273.938 149.7H253.005C252.899 149.7 252.73 149.818 252.498 150.055C252.137 150.428 251.872 150.877 251.7 151.403L248.195 162.183C248.024 162.71 247.995 163.159 248.109 163.532C248.188 163.769 248.281 163.887 248.386 163.887H269.319ZM242.463 171.247C241.11 171.247 240.218 170.578 239.788 169.241C239.392 168.026 239.471 166.57 240.025 164.874L245.283 148.713C245.836 147.012 246.706 145.556 247.892 144.346C249.197 143.004 250.523 142.333 251.872 142.333H279.934C281.287 142.333 282.178 143.004 282.609 144.346C283.009 145.561 282.932 147.016 282.378 148.713L277.12 164.874C276.567 166.575 275.695 168.031 274.504 169.241C273.2 170.578 271.873 171.247 270.525 171.247H242.463Z" stroke="white" stroke-width="4" mask="url(#path-21-outside-2)"/>
<path d="M320.633 149.7H293.961L292.855 153.113H322.465L317.154 160.473H290.456L289.349 163.887H318.933L313.623 171.247H279.591L289 142.333H325.95L320.633 149.7Z" stroke="white" stroke-width="4" mask="url(#path-21-outside-2)"/>
<path d="M324.185 171.247H354.072C355.57 171.247 357.004 170.545 358.374 169.142C359.538 167.954 360.391 166.531 360.931 164.874L362.684 159.487C363.224 157.834 363.299 156.411 362.908 155.218C362.451 153.815 361.473 153.113 359.976 153.113H335.511C335.551 153.113 335.542 153.026 335.485 152.85C335.362 152.46 335.395 151.978 335.583 151.403C335.768 150.833 336.049 150.351 336.427 149.956C336.598 149.785 336.664 149.7 336.624 149.7H362.282L367.599 142.333H335.425C333.927 142.333 332.491 143.037 331.116 144.445C329.957 145.637 329.109 147.06 328.573 148.713L326.814 154.1C326.278 155.753 326.203 157.176 326.59 158.369C327.046 159.772 328.024 160.473 329.522 160.473H353.986C353.947 160.473 353.955 160.561 354.013 160.736C354.136 161.127 354.103 161.609 353.914 162.183C353.729 162.753 353.448 163.236 353.07 163.63C352.899 163.801 352.833 163.887 352.873 163.887H323.664L324.185 171.247Z" stroke="white" stroke-width="4" mask="url(#path-21-outside-2)"/>
<path d="M217.719 187.565H218.989C218.95 186.168 217.714 185.153 215.942 185.153C214.19 185.153 212.848 186.155 212.848 187.659C212.848 188.874 213.717 189.585 215.119 189.964L216.151 190.246C217.084 190.493 217.804 190.8 217.804 191.575C217.804 192.428 216.99 192.99 215.869 192.99C214.855 192.99 214.011 192.538 213.935 191.588H212.614C212.699 193.169 213.922 194.145 215.878 194.145C217.928 194.145 219.108 193.067 219.108 191.588C219.108 190.016 217.706 189.406 216.598 189.134L215.746 188.912C215.064 188.737 214.156 188.418 214.161 187.582C214.161 186.841 214.838 186.291 215.912 186.291C216.913 186.291 217.625 186.76 217.719 187.565ZM223.4 194.132C224.828 194.132 225.838 193.429 226.127 192.364L224.922 192.146C224.691 192.764 224.137 193.08 223.413 193.08C222.322 193.08 221.589 192.372 221.555 191.111H226.208V190.659C226.208 188.294 224.794 187.369 223.311 187.369C221.487 187.369 220.285 188.759 220.285 190.77C220.285 192.803 221.47 194.132 223.4 194.132ZM221.559 190.156C221.61 189.227 222.284 188.422 223.319 188.422C224.308 188.422 224.956 189.155 224.96 190.156H221.559ZM230.379 194.132C231.926 194.132 232.928 193.203 233.068 191.929H231.828C231.666 192.636 231.116 193.054 230.388 193.054C229.31 193.054 228.615 192.155 228.615 190.727C228.615 189.325 229.322 188.443 230.388 188.443C231.197 188.443 231.692 188.955 231.828 189.568H233.068C232.932 188.247 231.854 187.369 230.366 187.369C228.521 187.369 227.328 188.759 227.328 190.757C227.328 192.73 228.479 194.132 230.379 194.132ZM238.577 191.286C238.581 192.398 237.755 192.926 237.039 192.926C236.25 192.926 235.705 192.355 235.705 191.464V187.455H234.431V191.618C234.431 193.241 235.321 194.085 236.578 194.085C237.563 194.085 238.232 193.565 238.534 192.866H238.603V194H239.855V187.455H238.577V191.286ZM241.567 194H242.842V190.003C242.842 189.146 243.502 188.528 244.406 188.528C244.67 188.528 244.968 188.575 245.07 188.605V187.386C244.942 187.369 244.691 187.357 244.529 187.357C243.762 187.357 243.106 187.791 242.867 188.494H242.799V187.455H241.567V194ZM248.76 194.132C250.187 194.132 251.197 193.429 251.487 192.364L250.281 192.146C250.051 192.764 249.497 193.08 248.772 193.08C247.681 193.08 246.949 192.372 246.914 191.111H251.568V190.659C251.568 188.294 250.153 187.369 248.67 187.369C246.846 187.369 245.645 188.759 245.645 190.77C245.645 192.803 246.829 194.132 248.76 194.132ZM246.919 190.156C246.97 189.227 247.643 188.422 248.679 188.422C249.667 188.422 250.315 189.155 250.319 190.156H246.919ZM255.432 194.128C256.625 194.128 257.094 193.399 257.324 192.982H257.43V194H258.675V185.273H257.401V188.516H257.324C257.094 188.111 256.659 187.369 255.44 187.369C253.859 187.369 252.696 188.618 252.696 190.74C252.696 192.858 253.842 194.128 255.432 194.128ZM255.713 193.041C254.575 193.041 253.983 192.04 253.983 190.727C253.983 189.428 254.562 188.452 255.713 188.452C256.825 188.452 257.422 189.359 257.422 190.727C257.422 192.104 256.812 193.041 255.713 193.041ZM263.771 194H265.016V192.982H265.122C265.352 193.399 265.821 194.128 267.014 194.128C268.599 194.128 269.75 192.858 269.75 190.74C269.75 188.618 268.582 187.369 267.001 187.369C265.787 187.369 265.348 188.111 265.122 188.516H265.045V185.273H263.771V194ZM265.02 190.727C265.02 189.359 265.616 188.452 266.729 188.452C267.884 188.452 268.463 189.428 268.463 190.727C268.463 192.04 267.866 193.041 266.729 193.041C265.634 193.041 265.02 192.104 265.02 190.727ZM271.752 196.455C272.804 196.455 273.469 195.905 273.848 194.874L276.554 187.467L275.178 187.455L273.52 192.534H273.452L271.794 187.455H270.431L272.826 194.085L272.668 194.52C272.344 195.389 271.888 195.462 271.189 195.27L270.882 196.314C271.036 196.382 271.368 196.455 271.752 196.455Z" fill="#9AA5B1"/>
<path fill-rule="evenodd" clip-rule="evenodd" d="M295.336 182.069C294.962 182.128 294.33 182.261 293.933 182.364C293.535 182.466 292.78 182.731 292.255 182.952C291.729 183.172 290.905 183.61 290.423 183.925C289.94 184.239 289.034 185.014 288.407 185.647C287.677 186.385 287.068 187.138 286.71 187.747C286.402 188.269 285.991 189.099 285.795 189.592C285.599 190.085 285.339 190.918 285.216 191.443C285.053 192.144 284.995 192.844 285 194.07C285.005 195.354 285.066 195.978 285.26 196.758C285.399 197.316 285.696 198.206 285.92 198.735C286.144 199.264 286.587 200.097 286.904 200.586C287.221 201.075 287.945 201.938 288.513 202.504C289.081 203.07 289.948 203.792 290.438 204.108C290.929 204.423 291.765 204.864 292.296 205.088C292.827 205.311 293.72 205.608 294.28 205.747C295.083 205.946 295.666 206 297.037 206C298.407 206 298.99 205.946 299.793 205.747C300.353 205.608 301.253 205.308 301.793 205.081C302.332 204.854 303.168 204.411 303.65 204.097C304.133 203.782 305.04 203.008 305.666 202.375C306.399 201.634 307.003 200.887 307.362 200.275C307.669 199.753 308.057 198.988 308.224 198.575C308.392 198.162 308.651 197.356 308.8 196.783C309.022 195.934 309.072 195.424 309.072 194.011C309.072 192.593 309.022 192.089 308.798 191.228C308.647 190.65 308.374 189.817 308.19 189.377C308.007 188.937 307.683 188.285 307.471 187.928C307.258 187.572 306.852 186.978 306.568 186.61C306.283 186.242 305.703 185.617 305.278 185.22C304.853 184.824 304.115 184.242 303.639 183.927C303.163 183.611 302.332 183.168 301.793 182.941C301.253 182.714 300.38 182.423 299.853 182.295C299.285 182.156 298.309 182.041 297.456 182.011C296.665 181.983 295.711 182.01 295.336 182.069ZM299.853 183.253C300.38 183.392 301.297 183.742 301.89 184.031C302.484 184.319 303.32 184.82 303.748 185.144C304.177 185.468 304.826 186.055 305.191 186.448C305.556 186.841 306.06 187.471 306.311 187.847C306.561 188.223 306.953 188.934 307.181 189.426C307.41 189.918 307.711 190.735 307.851 191.24C308.06 191.995 308.106 192.491 308.106 194.011C308.106 195.531 308.06 196.026 307.851 196.781C307.711 197.287 307.41 198.103 307.181 198.596C306.953 199.088 306.561 199.798 306.311 200.175C306.06 200.551 305.556 201.18 305.191 201.573C304.826 201.966 304.177 202.553 303.748 202.877C303.32 203.202 302.484 203.703 301.89 203.991C301.297 204.279 300.38 204.633 299.853 204.778C299.056 204.997 298.581 205.041 297.037 205.041C295.492 205.041 295.017 204.997 294.22 204.778C293.693 204.633 292.776 204.279 292.183 203.991C291.589 203.703 290.753 203.202 290.325 202.877C289.896 202.553 289.247 201.966 288.882 201.573C288.517 201.18 288.013 200.551 287.762 200.175C287.512 199.798 287.12 199.088 286.892 198.596C286.664 198.103 286.362 197.287 286.222 196.781C286.013 196.026 285.967 195.531 285.967 194.011C285.967 192.491 286.013 191.995 286.222 191.24C286.362 190.735 286.664 189.918 286.892 189.426C287.12 188.934 287.512 188.223 287.762 187.847C288.013 187.471 288.513 186.845 288.874 186.456C289.235 186.068 289.835 185.517 290.206 185.232C290.577 184.948 291.228 184.526 291.652 184.295C292.076 184.064 292.719 183.758 293.082 183.615C293.444 183.472 294.199 183.254 294.759 183.131C295.555 182.955 296.12 182.916 297.336 182.952C298.419 182.984 299.187 183.076 299.853 183.253ZM295.51 187.504C295.099 187.593 294.434 187.84 294.033 188.053C293.631 188.266 293.144 188.632 292.95 188.867C292.756 189.102 292.491 189.578 292.36 189.925C292.221 190.295 292.125 190.839 292.128 191.239C292.131 191.614 292.206 192.125 292.296 192.375C292.385 192.625 292.607 193.042 292.788 193.303C292.97 193.564 293.475 194.014 293.912 194.304C294.348 194.593 295.324 195.082 296.081 195.39C296.837 195.698 297.759 196.102 298.13 196.288C298.501 196.474 298.973 196.794 299.179 197C299.385 197.205 299.587 197.505 299.627 197.667C299.668 197.828 299.669 198.124 299.628 198.325C299.588 198.525 299.439 198.851 299.297 199.051C299.154 199.25 298.763 199.54 298.427 199.696C297.949 199.918 297.611 199.98 296.883 199.981C296.255 199.982 295.71 199.901 295.215 199.735C294.811 199.599 294.233 199.32 293.93 199.113C293.628 198.907 293.124 198.499 292.809 198.207L292.238 197.676L291.938 197.956L291.639 198.236L292.091 198.698C292.339 198.952 292.893 199.398 293.321 199.69C293.75 199.981 294.424 200.335 294.819 200.476C295.3 200.647 295.936 200.75 296.737 200.787C297.582 200.826 298.174 200.786 298.744 200.653C299.189 200.548 299.879 200.3 300.276 200.1C300.673 199.9 301.217 199.518 301.485 199.251C301.753 198.985 302.073 198.543 302.198 198.27C302.355 197.925 302.425 197.496 302.427 196.871C302.429 196.133 302.372 195.854 302.115 195.339C301.915 194.939 301.578 194.534 301.192 194.23C300.858 193.967 300.285 193.601 299.919 193.418C299.553 193.234 298.775 192.887 298.19 192.646C297.604 192.405 296.861 192.074 296.537 191.911C296.214 191.748 295.736 191.422 295.475 191.187C295.187 190.928 294.953 190.583 294.879 190.307C294.794 189.992 294.796 189.751 294.886 189.514C294.957 189.327 295.133 189.046 295.277 188.89C295.421 188.733 295.754 188.506 296.018 188.385C296.297 188.256 296.774 188.163 297.161 188.162C297.526 188.16 298.143 188.241 298.53 188.342C298.918 188.443 299.494 188.665 299.809 188.836C300.125 189.007 300.708 189.457 301.107 189.836L301.831 190.525L302.074 190.217C302.207 190.048 302.301 189.868 302.283 189.817C302.265 189.766 301.911 189.432 301.496 189.075C301.082 188.718 300.422 188.256 300.031 188.048C299.639 187.84 298.953 187.593 298.507 187.498C298.061 187.404 297.372 187.33 296.977 187.334C296.581 187.339 295.921 187.415 295.51 187.504ZM294.198 189.025C294.144 189.172 294.1 189.674 294.1 190.139C294.1 190.884 294.141 191.037 294.44 191.429C294.627 191.673 295.059 192.056 295.399 192.281C295.739 192.505 296.727 192.985 297.593 193.346C298.46 193.708 299.49 194.191 299.882 194.42C300.274 194.649 300.789 195.051 301.026 195.313C301.264 195.574 301.519 196.013 301.593 196.287C301.667 196.56 301.692 196.989 301.65 197.239C301.608 197.49 301.422 197.932 301.237 198.223C301.052 198.514 300.722 198.878 300.505 199.032C300.146 199.287 300.118 199.291 300.206 199.08C300.26 198.952 300.358 198.592 300.424 198.28C300.521 197.821 300.505 197.609 300.341 197.18C300.229 196.888 299.95 196.485 299.721 196.285C299.492 196.085 299.03 195.783 298.695 195.613C298.359 195.444 297.598 195.12 297.003 194.894C296.408 194.668 295.55 194.288 295.097 194.05C294.619 193.8 294.056 193.38 293.759 193.05C293.477 192.738 293.183 192.269 293.104 192.009C293.026 191.748 292.963 191.299 292.964 191.011C292.966 190.723 293.077 190.246 293.211 189.95C293.345 189.655 293.597 189.265 293.77 189.084C293.943 188.904 294.133 188.756 294.191 188.756C294.249 188.756 294.253 188.876 294.198 189.025Z" fill="#9AA5B1"/>
<path fill-rule="evenodd" clip-rule="evenodd" d="M314.361 185.33C313.991 185.513 313.585 185.861 313.459 186.105C313.332 186.348 313.229 186.837 313.229 187.192C313.229 187.692 313.329 187.937 313.675 188.282C313.979 188.585 314.567 188.861 315.519 189.148C316.288 189.379 317.041 189.677 317.192 189.81C317.343 189.943 317.467 190.165 317.467 190.305C317.467 190.444 317.359 190.712 317.227 190.9C317.095 191.088 316.742 191.287 316.442 191.343C316.142 191.399 315.657 191.4 315.364 191.345C315.07 191.29 314.561 191.064 314.233 190.842L313.636 190.438L313.354 190.785C313.199 190.976 313.072 191.223 313.072 191.335C313.072 191.447 313.439 191.721 313.888 191.944C314.552 192.273 314.927 192.348 315.905 192.348C316.891 192.348 317.202 192.285 317.64 191.995C317.933 191.8 318.304 191.374 318.464 191.049C318.672 190.626 318.724 190.298 318.648 189.894C318.59 189.584 318.347 189.136 318.109 188.899C317.831 188.621 317.263 188.349 316.512 188.134C315.872 187.951 315.193 187.737 315.005 187.658C314.816 187.58 314.588 187.379 314.498 187.212C314.37 186.974 314.407 186.816 314.67 186.484C314.981 186.09 315.073 186.064 315.968 186.121C316.618 186.162 317.081 186.288 317.395 186.511L317.859 186.84L318.134 186.476C318.285 186.276 318.408 186.034 318.408 185.939C318.408 185.844 318.037 185.594 317.584 185.384C317.027 185.125 316.481 185.001 315.897 185C315.331 184.999 314.802 185.113 314.361 185.33ZM329.551 185.324C329.163 185.5 328.679 185.797 328.476 185.985C328.274 186.174 327.97 186.596 327.801 186.925C327.632 187.253 327.454 187.857 327.405 188.267C327.349 188.734 327.409 189.328 327.564 189.86C327.731 190.435 328.003 190.894 328.406 191.286C328.734 191.604 329.264 191.973 329.585 192.106C329.914 192.243 330.626 192.348 331.219 192.348C332.052 192.348 332.406 192.269 332.928 191.964C333.291 191.752 333.697 191.411 333.833 191.205C334.071 190.844 334.061 190.823 333.558 190.584C333.057 190.346 333.025 190.35 332.684 190.713C332.489 190.919 332.088 191.168 331.793 191.265C331.498 191.362 331.032 191.399 330.757 191.347C330.482 191.295 330.024 191.111 329.738 190.937C329.438 190.755 329.091 190.342 328.918 189.96C328.752 189.596 328.615 189.033 328.613 188.707C328.611 188.382 328.707 187.89 328.825 187.613C328.944 187.336 329.244 186.922 329.492 186.694C329.74 186.465 330.208 186.207 330.532 186.12C330.915 186.017 331.31 186.014 331.665 186.112C331.964 186.194 332.417 186.436 332.672 186.649C333.075 186.987 333.186 187.013 333.54 186.853C333.763 186.751 333.945 186.587 333.945 186.488C333.945 186.389 333.751 186.123 333.514 185.896C333.276 185.669 332.82 185.375 332.499 185.241C332.178 185.108 331.542 185 331.086 185.002C330.594 185.004 329.97 185.135 329.551 185.324ZM320.605 188.752V192.348H323.116H325.627V191.801V191.254H323.737H321.847L321.893 190.198L321.939 189.143L323.705 189.098L325.471 189.054V188.59V188.126H323.666H321.861V187.109V186.093H323.744H325.627V185.624V185.155H323.116H320.605V188.752ZM335.829 188.74V192.348H336.456H337.084V190.932V189.515L337.75 189.564C338.406 189.611 338.43 189.634 339.212 190.941C339.99 192.243 340.02 192.271 340.664 192.318C341.026 192.345 341.32 192.31 341.318 192.24C341.316 192.171 340.963 191.552 340.533 190.865C340.104 190.179 339.752 189.563 339.752 189.497C339.752 189.431 339.865 189.377 340.003 189.377C340.141 189.377 340.494 189.138 340.788 188.845C341.278 188.357 341.321 188.236 341.321 187.357C341.321 186.487 341.273 186.349 340.785 185.817L340.248 185.233L338.038 185.182L335.829 185.131V188.74ZM343.362 188.752V192.348H345.873H348.384V191.801V191.254H346.493H344.603L344.649 190.198L344.696 189.143L346.461 189.098L348.227 189.054V188.59V188.126H346.422H344.617V187.109V186.093H346.5H348.384V185.624V185.155H345.873H343.362V188.752ZM349.796 185.624V186.093H350.895H351.993V189.221V192.348H352.621H353.249V189.221V186.093H354.347H355.446V185.624V185.155H352.621H349.796V185.624ZM339.764 186.55C340.016 186.802 340.223 187.15 340.223 187.323C340.223 187.497 340.052 187.837 339.844 188.078C339.493 188.485 339.381 188.517 338.314 188.517H337.163L337.117 187.305L337.071 186.093H338.188C339.214 186.093 339.343 186.131 339.764 186.55ZM346.13 195.853C345.796 195.976 345.313 196.276 345.056 196.519C344.799 196.763 344.438 197.243 344.254 197.587C344.007 198.051 343.919 198.498 343.916 199.312C343.912 200.184 343.992 200.566 344.303 201.166C344.531 201.605 344.981 202.127 345.375 202.411C345.962 202.833 346.213 202.908 347.228 202.959C348.069 203.001 348.599 202.943 349.092 202.755C349.471 202.611 350.006 202.239 350.279 201.928C350.553 201.618 350.874 201.132 350.993 200.849C351.112 200.566 351.209 199.882 351.209 199.33C351.209 198.536 351.117 198.153 350.77 197.49C350.452 196.883 350.123 196.525 349.573 196.186C348.965 195.812 348.606 195.71 347.775 195.674C347.153 195.648 346.493 195.72 346.13 195.853ZM313.072 199.386V202.983H313.696H314.32L314.363 200.376L314.406 197.769L316.29 200.368C318.141 202.924 318.183 202.968 318.761 202.975L319.35 202.983V199.386V195.789H318.801H318.251V198.213C318.251 199.546 318.194 200.637 318.124 200.637C318.054 200.637 317.193 199.546 316.211 198.213L314.426 195.789H313.749H313.072V199.386ZM321.233 199.386V202.983H323.744H326.255V202.435V201.888H324.365H322.474L322.521 200.832L322.567 199.777L324.333 199.732L326.098 199.688V199.224V198.76H324.293H322.489V197.744V196.727H324.372H326.255V196.258V195.789H323.744H321.233V199.386ZM327.197 196.258V196.727H328.295H329.394V199.855V202.983H330.022H330.65V199.855V196.727H331.748H332.847V196.258V195.789H330.022H327.197V196.258ZM333.691 196.063C333.735 196.213 334.062 197.357 334.418 198.604C334.773 199.851 335.205 201.35 335.377 201.936L335.69 203L336.333 202.952L336.976 202.904L337.332 201.575C337.528 200.844 337.843 199.662 338.033 198.949C338.223 198.235 338.408 197.682 338.445 197.719C338.483 197.756 338.725 198.586 338.985 199.563C339.244 200.541 339.562 201.714 339.69 202.17L339.923 203L340.567 202.952L341.211 202.904L342.203 199.464C342.749 197.572 343.197 195.967 343.2 195.897C343.203 195.828 342.909 195.792 342.547 195.819L341.889 195.867L341.229 198.496C340.866 199.943 340.531 201.164 340.485 201.21C340.438 201.256 340.32 200.988 340.222 200.614C340.124 200.239 339.801 199.034 339.505 197.935C339.21 196.836 338.967 195.903 338.967 195.863C338.967 195.822 338.735 195.789 338.451 195.789H337.934L337.257 198.33C336.884 199.728 336.527 200.968 336.461 201.087C336.391 201.215 336.066 200.187 335.659 198.546L334.974 195.789H334.292C333.717 195.789 333.623 195.832 333.691 196.063ZM352.778 199.374V202.983H353.406H354.034V201.566V200.15L354.7 200.198C355.355 200.245 355.379 200.268 356.161 201.575C356.94 202.877 356.969 202.905 357.614 202.952C357.975 202.979 358.269 202.944 358.268 202.874C358.266 202.805 357.913 202.186 357.483 201.499C357.053 200.813 356.702 200.197 356.702 200.131C356.702 200.065 356.815 200.011 356.953 200.011C357.091 200.011 357.444 199.772 357.737 199.48C358.228 198.991 358.271 198.871 358.271 197.992C358.271 197.121 358.223 196.983 357.734 196.451L357.197 195.867L354.988 195.816L352.778 195.765V199.374ZM359.997 199.386V202.983H360.625H361.253V201.781C361.253 200.769 361.306 200.523 361.588 200.223L361.923 199.868L363.172 201.425C364.413 202.974 364.424 202.983 365.112 202.983C365.493 202.983 365.804 202.949 365.804 202.909C365.804 202.869 365.109 202.003 364.259 200.986L362.713 199.137L363.946 197.736C364.624 196.966 365.252 196.213 365.34 196.063C365.484 195.819 365.425 195.789 364.802 195.789C364.104 195.789 364.101 195.791 362.717 197.468L361.331 199.148L361.287 197.468L361.242 195.789H360.62H359.997V199.386ZM348.384 196.811C348.6 196.871 348.942 197.07 349.144 197.253C349.346 197.437 349.586 197.726 349.678 197.896C349.77 198.067 349.901 198.451 349.969 198.751C350.038 199.056 350.022 199.624 349.933 200.037C349.816 200.583 349.617 200.919 349.175 201.316C348.845 201.613 348.351 201.905 348.075 201.965C347.8 202.025 347.335 202.03 347.042 201.975C346.749 201.92 346.286 201.688 346.013 201.459C345.74 201.23 345.42 200.813 345.302 200.532C345.184 200.251 345.09 199.72 345.091 199.352C345.093 198.983 345.229 198.389 345.392 198.03C345.556 197.671 345.874 197.257 346.099 197.11C346.324 196.963 346.736 196.789 347.014 196.724C347.293 196.659 347.627 196.628 347.756 196.654C347.885 196.681 348.168 196.751 348.384 196.811ZM356.714 197.184C356.966 197.436 357.172 197.784 357.172 197.958C357.172 198.131 357.002 198.471 356.794 198.712C356.443 199.119 356.331 199.151 355.264 199.151H354.112L354.066 197.939L354.02 196.727H355.138C356.163 196.727 356.293 196.765 356.714 197.184Z" fill="#7B8794"/>
</svg>
