<svg class="canvas" viewBox="0 0 1920 1080" preserveAspectRatio="xMaxYMid slice" xmlns="http://www.w3.org/2000/svg" version="1.1" xmlns:xlink="http://www.w3.org/1999/xlink" xmlns:svgjs="http://svgjs.com/svgjs"><rect width="1920" height="1080" fill="hsl(149, 65%, 15%)"></rect><defs><linearGradient x1="0.5" y1="0" x2="0" y2="1" id="SvgjsLinearGradient1182"><stop stop-color="#288a6b" offset="0"></stop><stop stop-color="#060a14" offset="0.1"></stop></linearGradient><linearGradient x1="0.5" y1="0" x2="0" y2="1" id="SvgjsLinearGradient1183"><stop stop-color="#288a7f" offset="0"></stop><stop stop-color="#060714" offset="0.22857142857142856"></stop></linearGradient><linearGradient x1="0.5" y1="0" x2="0" y2="1" id="SvgjsLinearGradient1184"><stop stop-color="#28828a" offset="0"></stop><stop stop-color="#070614" offset="0.3571428571428571"></stop></linearGradient><linearGradient x1="0.5" y1="0" x2="0" y2="1" id="SvgjsLinearGradient1185"><stop stop-color="#c0f2ec" offset="0"></stop><stop stop-color="#4253d7" offset="0.48571428571428565"></stop></linearGradient><linearGradient x1="0.5" y1="0" x2="0" y2="1" id="SvgjsLinearGradient1186"><stop stop-color="#c0f2d8" offset="0"></stop><stop stop-color="#428fd7" offset="0.6142857142857142"></stop></linearGradient><linearGradient x1="0.5" y1="0" x2="0" y2="1" id="SvgjsLinearGradient1187"><stop stop-color="#c0f2ce" offset="0"></stop><stop stop-color="#42add7" offset="0.7428571428571429"></stop></linearGradient><linearGradient x1="0.5" y1="0" x2="0" y2="1" id="SvgjsLinearGradient1188"><stop stop-color="#c0f2d8" offset="0"></stop><stop stop-color="#428fd7" offset="0.8714285714285713"></stop></linearGradient></defs><path d="M0,-504.8656753058049C50.96059141535752,-486.89585675209605,216.58785370332072,-424.41786251695083,305.7635484921451,-397.0467639835515C394.9392432809695,-369.67566545015217,445.98474340052564,-359.3551344722105,535.0541687329464,-340.63908410540887C624.1235940653672,-321.9230337386072,755.3915692723504,-314.76015147999027,840.1801004866699,-284.75046178274147C924.9686317009894,-254.74077208549267,962.0648649033943,-189.37320760461384,1043.7853560188632,-160.58094592191614C1125.5058471343323,-131.78868423921844,1232.6804187585103,-129.74087983535264,1330.5030471794835,-111.99689168655522C1428.3256756004566,-94.25290353775777,1532.47163440795,-78.6388864259232,1630.7211265447027,-54.11701702913148C1728.9706186814553,-29.595147632339767,1871.786854424117,20.259101073640636,1920,35.13432469419506L 1920 1080 L 0 1080 Z" fill="url(#SvgjsLinearGradient1182)"></path><path d="M0,-373.4505079534169C53.05613394505199,-364.42657744656884,215.0191914911132,-345.0052486703377,318.33680367031195,-319.30692491232867C421.6544158495107,-293.6086011543196,512.6145974983745,-255.44490491883013,619.9056730751925,-219.26056540536254C727.1967486520105,-183.07622589189495,851.9194117327424,-135.41415201170972,962.0832571312201,-102.20088783152309C1072.2471025296977,-68.98762365133646,1167.252370011152,-56.86817010272069,1280.888745466058,-19.98098032424285C1394.5251209209641,16.90620945423499,1537.3829674383333,85.65288639658723,1643.901509860657,119.12225083934395C1750.4200522829806,152.59161528210066,1873.9835849767762,170.5497137501385,1920,180.83520633229742L 1920 1080 L 0 1080 Z" fill="url(#SvgjsLinearGradient1183)"></path><path d="M0,-253.00819881161635C64.19102037053725,-231.0135290113698,257.87947312979173,-161.51409173700276,385.1461222232235,-121.04018001013705C512.4127713166552,-80.56626828327134,629.5711246160968,-46.09695842013678,763.5998945605904,-10.164728450422096C897.6286645050841,25.767501519292587,1067.1256550716207,62.952640358606516,1189.3187418901853,94.55319980815105C1311.5118287087498,126.15375925769558,1374.9782057870084,142.60362325490155,1496.7584154719775,179.43862824684507C1618.5386251569466,216.2736332387886,1849.4597359119962,292.8757961743177,1920,315.56322975981226L 1920 1080 L 0 1080 Z" fill="url(#SvgjsLinearGradient1184)"></path><path d="M0,-166.33080733122392C55.70960751470125,-148.11911461986097,224.83660426087607,-91.42341120075935,334.2576450882075,-57.0606510630461C443.6786859155389,-22.697890925332857,547.2352303325541,8.801550946060988,656.5262449639885,39.845753495055554C765.8172595954228,70.88995604405012,886.1003613795156,99.69187814056517,990.0037328768135,129.2045642309213C1093.9071043741114,158.71725032127745,1183.3488611400642,183.2338795190666,1279.9464739477764,216.92187003719238C1376.5440867554887,250.60986055531816,1462.9138220477162,298.0650964248882,1569.5894097230866,331.332507339676C1676.2649973984571,364.5999182544638,1861.5982349538479,402.3273641615451,1920,416.52633552591897L 1920 1080 L 0 1080 Z" fill="url(#SvgjsLinearGradient1185)"></path><path d="M0,-9.283680671064957C54.905165477248794,4.910467613019042,234.255069569608,42.76882982194742,329.43099286349275,75.88120903343903C424.6069161573775,108.99358824493065,487.47740652001136,161.54255877379575,571.0555397633085,189.39059459788473C654.6336730066056,217.2386304219737,744.3246342273752,210.27505616412526,830.8997923232755,242.96942397797284C917.4749504191758,275.6637917918204,994.8196915631884,353.46571024347105,1090.5064883387101,385.55680148097014C1186.193285114232,417.6478927184692,1318.944187552264,416.26088062215933,1405.0205729764061,435.51597140296747C1491.0969584005481,454.7710621837756,1521.13489637963,475.6968119876816,1606.9648008835622,501.08734616581904C1692.7947053874946,526.4778803439565,1867.827466813927,573.39720475413,1920,587.8591764717922L 1920 1080 L 0 1080 Z" fill="url(#SvgjsLinearGradient1186)"></path><path d="M0,92.04342081451469C54.314193966225105,108.52812492539613,215.49803421302954,162.6934207987084,325.88516379735063,190.95164547980332C436.2722933816717,219.20987016089825,553.4140475891792,229.91496802150527,662.3227775059265,261.59276890108424C771.2315074226739,293.2705697806632,876.618639660764,340.3580768226349,979.3375432978345,381.01845075727704C1082.0564469349051,421.67882469191915,1170.0211440505127,464.78692299430486,1278.6361993283497,505.5550125089369C1387.2512546061866,546.3231020235689,1524.1339081862475,592.6408245560443,1631.0278749648558,625.6269878450692C1737.921841743464,658.613151134094,1871.8379791608093,690.4978248434167,1920,703.4719922430861L 1920 1080 L 0 1080 Z" fill="url(#SvgjsLinearGradient1187)"></path><path d="M0,265.59373857765775C70.33311937166881,296.58408618740987,258.24469529488726,402.23990446337854,421.99871623001286,451.5358242361703C585.7527371651385,500.83174400896206,815.2162883279162,507.67187328800713,982.5241256107533,561.3692572144083C1149.8319628935903,615.0666411408095,1269.5997608621608,718.7303332816548,1425.8457399270353,773.7201277945774C1582.0917189919098,828.7099223074999,1837.6409566545058,871.7100415423824,1920,891.3080242919435L 1920 1080 L 0 1080 Z" fill="url(#SvgjsLinearGradient1188)"></path></svg>